<svg xmlns="http://www.w3.org/2000/svg" viewBox="0 0 32.09 32.09"><defs><style>.cls-1{fill:#83ed48;}.cls-2{fill:#231b3b;}</style></defs><title>资源 4</title><g id="图层_2" data-name="图层 2"><g id="Layer_1" data-name="Layer 1"><polygon class="cls-1" points="21.23 0.5 10.86 0.5 10.86 10.86 0.5 10.86 0.5 21.23 10.86 21.23 10.86 31.59 21.23 31.59 21.23 21.23 31.59 21.23 31.59 10.86 21.23 10.86 21.23 0.5"/><path class="cls-2" d="M21.73,10.36V.5l-.5-.5H10.86l-.5.5v9.86H.5l-.5.5V21.23l.5.5h9.86v9.86l.5.5H21.23l.5-.5V21.73h9.86l.5-.5V10.86l-.5-.5Zm9.36,10.36H21.23l-.5.5v9.86H11.36V21.23l-.5-.5H1V11.36h9.86l.5-.5V1h9.36v9.86l.5.5h9.86Z"/></g></g></svg>