<svg xmlns="http://www.w3.org/2000/svg" viewBox="0 0 37.27 37.27"><defs><style>.cls-1{fill:#0039a7;}.cls-2{fill:#f62c72;}.cls-3{fill:#83ed48;}.cls-4{fill:#231b3b;}</style></defs><title>资源 3</title><g id="图层_2" data-name="图层 2"><g id="Layer_1" data-name="Layer 1"><polygon class="cls-1" points="26.41 0.5 16.04 0.5 10.86 5.68 10.86 10.86 5.68 10.86 0.5 16.04 0.5 26.41 10.86 26.41 10.86 36.77 21.23 36.77 26.41 31.59 26.41 26.41 31.59 26.41 36.77 21.23 36.77 10.86 26.41 10.86 26.41 0.5"/><polygon class="cls-2" points="10.86 5.68 21.23 5.68 26.41 0.5 16.04 0.5 10.86 5.68"/><polygon class="cls-3" points="21.23 5.68 10.86 5.68 10.86 16.04 0.5 16.04 0.5 26.41 10.86 26.41 10.86 36.77 21.23 36.77 21.23 26.41 31.59 26.41 31.59 16.04 21.23 16.04 21.23 5.68"/><polygon class="cls-2" points="31.59 26.41 36.77 21.23 36.77 10.86 31.59 16.04 31.59 26.41"/><path class="cls-4" d="M26.91,0H15.84L10.36,5.47v4.89H5.47L0,15.84V26.91H10.36V37.27H21.43l5.47-5.47V26.91H31.8l5.47-5.47V10.36H26.91Zm9.36,11.36V21l-4.89,4.89H25.91v5.47L21,36.27H11.36V25.91H1V16.25l4.89-4.89h5.47V5.89L16.25,1h9.66V11.36Z"/><path class="cls-4" d="M21.73,15.54V5.68l-.5-.5H10.86l-.5.5v9.86H.5L0,16V26.41l.5.5h9.86v9.86l.5.5H21.23l.5-.5V26.91h9.86l.5-.5V16l-.5-.5Zm9.36,10.36H21.23l-.5.5v9.86H11.36V26.41l-.5-.5H1V16.54h9.86l.5-.5V6.18h9.36V16l.5.5h9.86Z"/><rect class="cls-4" x="20.15" y="2.59" width="7.33" height="1" transform="translate(4.79 17.75) rotate(-45)"/><rect class="cls-4" x="30.52" y="12.95" width="7.33" height="1" transform="translate(0.5 28.11) rotate(-45)"/><rect class="cls-4" x="20.15" y="7.77" width="7.33" height="1" transform="translate(1.13 19.26) rotate(-45)"/><rect class="cls-4" x="20.15" y="12.95" width="7.33" height="1" transform="translate(-2.54 20.78) rotate(-45)"/><rect class="cls-4" x="25.33" y="12.95" width="7.33" height="1" transform="translate(-1.02 24.44) rotate(-45)"/><rect class="cls-4" x="4.61" y="12.95" width="7.33" height="1" transform="translate(-7.09 9.79) rotate(-45)"/><rect class="cls-4" x="20.15" y="28.5" width="7.33" height="1" transform="translate(-13.53 25.33) rotate(-45)"/></g></g></svg>