<?xml version="1.0" standalone="no"?><!DOCTYPE svg PUBLIC "-//W3C//DTD SVG 1.1//EN" "http://www.w3.org/Graphics/SVG/1.1/DTD/svg11.dtd"><svg t="1557806651464" class="icon" style="" viewBox="0 0 1024 1024" version="1.1" xmlns="http://www.w3.org/2000/svg" p-id="4246" xmlns:xlink="http://www.w3.org/1999/xlink" width="200" height="200"><defs><style type="text/css"></style></defs><path d="M296.610133 650.427733a21.333333 21.333333 0 0 0-27.989333 11.264l-104.5504 245.5808a21.333333 21.333333 0 0 0 19.626667 29.696c8.2944 0 16.1792-4.872533 19.6352-12.9792L307.882667 678.408533a21.333333 21.333333 0 0 0-11.272534-27.9808zM767.3344 661.8624a21.333333 21.333333 0 0 0-39.406933 16.366933l102.0672 245.5808a21.333333 21.333333 0 1 0 39.406933-16.366933L767.3344 661.8624zM343.296 510.6432a21.358933 21.358933 0 0 0 27.972267-11.306667l145.450666-342.980266 147.165867 347.093333a21.333333 21.333333 0 0 0 27.972267 11.3152 21.333333 21.333333 0 0 0 11.3152-27.972267L539.144533 99.9424a21.2736 21.2736 0 0 0-22.4256-12.731733 21.2736 21.2736 0 0 0-22.434133 12.731733l-162.304 382.728533a21.333333 21.333333 0 0 0 11.3152 27.972267zM938.666667 577.604267H85.333333a21.333333 21.333333 0 1 0 0 42.666666h853.333334a21.333333 21.333333 0 1 0 0-42.666666z" p-id="4247" fill="#88147f"></path></svg>