<svg xmlns="http://www.w3.org/2000/svg" viewBox="0 0 28 28"><defs><style>.cls-1{fill:none;}.cls-2{fill:#4baaf4;}</style></defs><title>资源 6</title><g id="图层_2" data-name="图层 2"><g id="图层_1-2" data-name="图层 1"><rect class="cls-1" width="28" height="28" rx="3" ry="3"/><path class="cls-2" d="M10.29,22.67A11.41,11.41,0,0,1,4,20.78,8.11,8.11,0,0,0,10.07,19a4.12,4.12,0,0,1-3.83-2.92A4,4,0,0,0,8.09,16,4.19,4.19,0,0,1,4.8,11.91v-.05a4,4,0,0,0,1.86.53A4.28,4.28,0,0,1,5.39,6.77a11.56,11.56,0,0,0,8.46,4.4,4.33,4.33,0,0,1-.11-1A4.16,4.16,0,0,1,17.85,6a4.05,4.05,0,0,1,3,1.33,8.09,8.09,0,0,0,2.6-1,4.2,4.2,0,0,1-1.8,2.33A8,8,0,0,0,24,8a8.46,8.46,0,0,1-2,2.18c0,.18,0,.36,0,.54,0,5.56-4.13,12-11.67,12"/></g></g></svg>