<svg xmlns="http://www.w3.org/2000/svg" viewBox="0 0 28 28"><defs><style>.cls-1{fill:none;}.cls-2{fill:#0077b9;}.cls-3{fill:#fff;}</style></defs><title>资源 14</title><g id="图层_2" data-name="图层 2"><g id="图层_1-2" data-name="图层 1"><rect class="cls-1" width="28" height="28" rx="3" ry="3"/><rect class="cls-2" x="5" y="5" width="18" height="18" rx="2" ry="2"/><path class="cls-3" d="M10.73,11.57H8.15V19h2.58Zm.16-2.29A1.31,1.31,0,0,0,9.45,8,1.32,1.32,0,0,0,8,9.28a1.31,1.31,0,0,0,1.42,1.28h0A1.31,1.31,0,0,0,10.89,9.28ZM20,14.74c0-2.28-1.27-3.34-3-3.34a2.57,2.57,0,0,0-2.34,1.25h0V11.57H12.15s0,.7,0,7.43h2.57V14.86a1.78,1.78,0,0,1,.09-.61,1.4,1.4,0,0,1,1.32-.9c.93,0,1.31.68,1.31,1.68v4H20Z"/></g></g></svg>