<svg xmlns="http://www.w3.org/2000/svg" viewBox="0 0 28 28"><defs><style>.cls-1{fill:none;}.cls-2{fill:#00b500;}</style></defs><title>资源 11</title><g id="图层_2" data-name="图层 2"><g id="图层_1-2" data-name="图层 1"><rect class="cls-1" width="28" height="28" rx="3" ry="3"/><path class="cls-2" d="M9.23,9.31a.92.92,0,0,1-1,1,1.1,1.1,0,0,1-1.17-1,1.09,1.09,0,0,1,1.17-1A.92.92,0,0,1,9.23,9.31Zm8,5.47a.89.89,0,0,1-1,.79.78.78,0,0,1,0-1.57A.89.89,0,0,1,17.21,14.78ZM14.68,9.31a.92.92,0,0,1-1,1,1.09,1.09,0,0,1-1.17-1,1.09,1.09,0,0,1,1.17-1A.92.92,0,0,1,14.68,9.31Zm6.82,5.47a.9.9,0,0,1-1,.79.78.78,0,0,1,0-1.57A.9.9,0,0,1,21.5,14.78Zm-2.86-4.28C18,7.34,14.61,5,10.79,5,6.5,5,3,7.92,3,11.65a6.44,6.44,0,0,0,3.11,5.29l-.77,2.35,2.72-1.37a13.2,13.2,0,0,0,2.73.39c.25,0,.48,0,.73,0a5.51,5.51,0,0,1-.25-1.64,6.39,6.39,0,0,1,6.62-6.18A5.65,5.65,0,0,1,18.64,10.49ZM25,16.55c0-3.13-3.11-5.68-6.62-5.68-3.71,0-6.62,2.55-6.62,5.68s2.91,5.68,6.62,5.68a9.93,9.93,0,0,0,2.34-.4L22.86,23l-.59-2A5.92,5.92,0,0,0,25,16.55Z"/></g></g></svg>