<svg xmlns="http://www.w3.org/2000/svg" viewBox="0 0 28 28"><defs><style>.cls-1{fill:none;}.cls-2{fill:#ec0117;}</style></defs><title>资源 4</title><g id="图层_2" data-name="图层 2"><g id="图层_1-2" data-name="图层 1"><rect class="cls-1" width="28" height="28" rx="3" ry="3"/><path class="cls-2" d="M11.53,18.43a1.26,1.26,0,0,1-1.53.5.88.88,0,0,1-.33-1.33,1.26,1.26,0,0,1,1.48-.5.88.88,0,0,1,.38,1.33Zm1.05-1.35a.48.48,0,0,1-.57.21.34.34,0,0,1-.15-.5.49.49,0,0,1,.56-.21A.34.34,0,0,1,12.58,17.08Zm1.94,1.19a2.47,2.47,0,0,0-1.8-3.46,3.63,3.63,0,0,0-4,1.76,2.46,2.46,0,0,0,1.57,3.5A3.57,3.57,0,0,0,14.53,18.27ZM18,16.49c.21,2.18-2.29,4.2-5.6,4.53S6.23,19.84,6,17.67s2.29-4.2,5.6-4.53S17.79,14.31,18,16.49Zm3.44,0A3,3,0,0,0,19,13.8c-.28-.09-.47-.15-.32-.51a2.1,2.1,0,0,0,0-2c-.65-.93-2.42-.88-4.45,0,0,0-.64.28-.48-.23a2.28,2.28,0,0,0-.22-2.33c-1.1-1.11-4,0-6.56,2.56-1.89,1.89-3,3.88-3,5.61,0,3.31,4.24,5.32,8.39,5.32,5.43,0,9.05-3.16,9.05-5.67Zm-.83-7a2.55,2.55,0,0,0-2.45-.79.65.65,0,0,0-.5.77h0a.65.65,0,0,0,.78.5,1.27,1.27,0,0,1,1.46,1.63.66.66,0,1,0,1.25.4h0A2.57,2.57,0,0,0,20.62,9.57Zm2-1.82a5.29,5.29,0,0,0-5-1.63A.76.76,0,0,0,17,7h0a.77.77,0,0,0,.92.59,3.76,3.76,0,0,1,4.36,4.84.77.77,0,0,0,.5,1,.76.76,0,0,0,1-.49h0A5.29,5.29,0,0,0,22.64,7.75Z"/></g></g></svg>