<svg xmlns="http://www.w3.org/2000/svg" viewBox="0 0 28 28"><defs><style>.cls-1{fill:none;}.cls-2{fill:#333;}</style></defs><title>资源 3</title><g id="图层_2" data-name="图层 2"><g id="图层_1-2" data-name="图层 1"><rect class="cls-1" width="28" height="28" rx="3" ry="3"/><path class="cls-2" d="M23,14.23A9.12,9.12,0,0,0,14,5a9.12,9.12,0,0,0-9,9.23A9.22,9.22,0,0,0,11.15,23c.46.08.62-.2.62-.44s0-1,0-1.72c0,0-2.51.55-3-1.09,0,0-.41-1.07-1-1.34,0,0-.82-.58.06-.57a1.88,1.88,0,0,1,1.38,1,1.87,1.87,0,0,0,2.61.77,2,2,0,0,1,.57-1.24c-2-.23-4.1-1-4.1-4.55a3.6,3.6,0,0,1,.93-2.47,3.45,3.45,0,0,1,.08-2.45c.76-.24,2.48.95,2.48.95a8.28,8.28,0,0,1,4.5,0S18,8.58,18.72,8.82a3.41,3.41,0,0,1,.09,2.45,3.6,3.6,0,0,1,.93,2.47c0,3.54-2.11,4.33-4.11,4.55A2.2,2.2,0,0,1,16.24,20v2.53c0,.24.15.53.61.44A9.22,9.22,0,0,0,23,14.23Z"/></g></g></svg>