<svg xmlns="http://www.w3.org/2000/svg" viewBox="0 0 28 28"><defs><style>.cls-1{fill:none;}.cls-2{fill:#3182f6;}</style></defs><title>资源 2</title><g id="图层_2" data-name="图层 2"><g id="图层_1-2" data-name="图层 1"><rect class="cls-1" width="28" height="28" rx="3" ry="3"/><path class="cls-2" d="M13.82,13.16h7.42l-.07,2.42H13.82Z"/><path class="cls-2" d="M21.86,13.16v.09c.82,6.15-3.26,9.7-8.15,9.65A8.83,8.83,0,0,1,5,13.95,8.83,8.83,0,0,1,13.71,5a8.05,8.05,0,0,1,6.07,2.47l-1.7,1.74a5.8,5.8,0,0,0-4.3-1.72A6.37,6.37,0,0,0,7.5,13.95a6.37,6.37,0,0,0,6.28,6.46c3.47,0,5.93-2.06,5.93-6.46,0-.27,0-.54,0-.79Z"/></g></g></svg>