<svg xmlns="http://www.w3.org/2000/svg" viewBox="0 0 28 28"><defs><style>.cls-1{fill:none;}.cls-2{fill:#0098e6;}</style></defs><title>资源 5</title><g id="图层_2" data-name="图层 2"><g id="图层_1-2" data-name="图层 1"><rect class="cls-1" width="28" height="28" rx="3" ry="3"/><path class="cls-2" d="M7.53,13.1A5.66,5.66,0,0,0,5,17.78a2.45,2.45,0,0,0,.23,1c.06,0,0,.1.11.1h0a1.85,1.85,0,0,0,1.33-1.12s.05-.2.12-.2l.05,0C7,18.31,8,20.06,8.67,20.22l0,0s0,0,0,0l-.14,0a5.53,5.53,0,0,0-.9.25,1.17,1.17,0,0,0-.51,1.09c0,1.31,3,1.36,3.72,1.36a4.58,4.58,0,0,0,3-.85,6.06,6.06,0,0,1,.86.06,11.36,11.36,0,0,0,3.37.66c.92,0,2.46-.11,3-1,.08-.11.06-.23.11-.34-.17-1-1.09-.9-1.67-1.46a5.83,5.83,0,0,0,1.33-2.24l0,0h0c.14.26.57,1.22,1,1.22.56,0,.75-1.23.75-1.58A7.71,7.71,0,0,0,21,13.22a.71.71,0,0,1-.07-.12c0-.24.18-.51.18-.78a2.84,2.84,0,0,0-.55-1.51v-.05c-.5-2.36-1-4.21-3.4-5.2A7.23,7.23,0,0,0,14.47,5a7.4,7.4,0,0,0-3.25.66,6.21,6.21,0,0,0-3.11,5,1.53,1.53,0,0,0-.3,1,1.87,1.87,0,0,0-.35.94A1.33,1.33,0,0,0,7.53,13.1Z"/></g></g></svg>